<?xml version="1.0" standalone="no"?>
<!DOCTYPE svg PUBLIC "-//W3C//DTD SVG 20010904//EN"
 "http://www.w3.org/TR/2001/REC-SVG-20010904/DTD/svg10.dtd">
<svg version="1.0" xmlns="http://www.w3.org/2000/svg"
 width="2131.000000pt" height="1746.000000pt" viewBox="0 0 2131.000000 1746.000000"
 preserveAspectRatio="xMidYMid meet">

<g transform="translate(0.000000,1746.000000) scale(0.100000,-0.100000)"
fill="#87CEEB" stroke="none">
<path d="M11420 14774 c-30 -2 -131 -8 -223 -14 -212 -13 -412 -41 -549 -79
-60 -16 -108 -25 -108 -21 0 9 46 30 68 30 9 0 26 7 36 15 11 8 32 15 47 15
15 0 31 5 34 10 8 12 1 12 -55 -2 -25 -6 -55 -10 -67 -9 -12 0 -25 -4 -28 -9
-3 -6 -17 -7 -30 -4 -12 3 -26 1 -29 -5 -4 -6 -26 -11 -49 -12 -33 0 -38 -2
-22 -9 16 -7 10 -9 -25 -11 -25 -1 -51 -2 -57 -2 -7 1 -11 -3 -8 -7 6 -9 -19
-20 -47 -20 -11 0 -33 -9 -49 -21 -16 -11 -33 -17 -39 -14 -6 3 -13 -1 -16 -9
-3 -9 -17 -16 -31 -16 -13 0 -35 -11 -49 -25 -25 -25 -64 -34 -64 -15 0 6 -10
10 -21 10 -17 0 -20 -5 -16 -21 6 -24 -27 -64 -45 -53 -6 4 -8 3 -5 -3 4 -6
-3 -19 -14 -29 -16 -14 -22 -15 -28 -5 -6 9 -12 4 -22 -18 -8 -17 -21 -31 -31
-31 -9 0 -20 -4 -23 -10 -3 -5 -15 -10 -26 -10 -14 0 -19 -7 -19 -25 0 -21
-27 -92 -40 -105 -3 -3 -6 -12 -8 -20 -10 -55 -42 -93 -42 -50 0 11 5 20 12
20 6 0 9 2 6 5 -3 3 -17 1 -32 -5 -22 -8 -25 -13 -17 -29 8 -14 6 -23 -9 -36
-15 -14 -17 -21 -9 -31 8 -10 5 -16 -14 -25 -22 -10 -24 -14 -14 -32 9 -15 9
-21 0 -24 -7 -3 -13 -13 -13 -24 0 -10 -13 -31 -29 -46 -15 -16 -33 -38 -40
-50 -6 -13 -17 -20 -25 -17 -15 6 -41 -30 -32 -45 6 -10 -21 -69 -41 -89 -7
-7 -13 -20 -13 -29 0 -8 -6 -13 -13 -10 -15 6 -43 -31 -38 -52 1 -7 -2 -10 -8
-6 -6 3 -11 1 -11 -5 0 -7 -7 -10 -15 -6 -9 3 -15 0 -15 -8 0 -20 12 -27 27
-15 9 9 13 8 13 0 0 -6 -7 -14 -15 -17 -8 -4 -15 -10 -15 -15 0 -6 -9 -19 -20
-31 -11 -12 -20 -28 -20 -36 0 -8 -10 -23 -22 -33 -11 -11 -18 -22 -15 -25 8
-8 -46 -79 -82 -111 -14 -12 -36 -22 -48 -23 -12 0 -25 -4 -28 -10 -3 -5 3
-10 13 -10 11 0 32 -2 48 -5 24 -5 36 1 67 31 21 20 40 34 43 32 2 -3 -9 -18
-26 -34 -16 -16 -30 -35 -30 -41 0 -7 -9 -13 -20 -13 -10 0 -25 -10 -31 -22
-14 -27 -45 -58 -57 -58 -5 0 -15 -6 -21 -14 -9 -11 -9 -15 1 -20 10 -5 10 -7
1 -12 -7 -3 -15 -5 -18 -5 -7 1 -50 -43 -48 -50 1 -3 -14 -14 -33 -24 -24 -13
-34 -24 -31 -36 3 -11 -4 -21 -19 -28 -13 -6 -23 -14 -22 -19 2 -4 -7 -18 -19
-32 -13 -13 -23 -28 -23 -32 0 -5 -4 -6 -10 -3 -5 3 -17 -3 -27 -15 -10 -11
-25 -20 -35 -20 -10 0 -26 -8 -36 -18 -24 -24 -42 -17 -43 16 0 15 -3 21 -6
15 -2 -7 -11 -13 -19 -13 -8 0 -24 -9 -36 -19 -11 -11 -26 -17 -33 -15 -7 3
-16 -3 -19 -14 -8 -23 -83 -74 -91 -61 -11 18 -25 9 -25 -16 0 -24 -12 -30
-47 -26 -7 1 -13 -6 -13 -15 0 -13 -7 -15 -34 -12 -28 3 -33 1 -31 -14 2 -11
-2 -18 -11 -18 -8 0 -14 5 -14 10 0 18 -50 11 -67 -9 -9 -11 -20 -18 -25 -15
-13 9 -9 24 7 24 8 0 15 9 15 20 0 11 7 20 15 20 27 0 16 28 -20 49 -19 11
-35 28 -35 37 0 9 -9 32 -21 50 -16 27 -19 43 -14 78 5 32 3 50 -9 69 -12 17
-15 36 -10 64 4 28 1 50 -10 71 -11 22 -14 44 -10 71 6 36 4 41 -22 54 -56 28
-249 50 -454 51 -256 1 -621 -35 -640 -63 -3 -4 -41 -11 -85 -15 -97 -8 -142
-22 -155 -46 -11 -21 -50 -23 -50 -3 0 16 -40 16 -61 0 -9 -7 -21 -22 -28 -35
-16 -30 -55 -26 -59 6 -4 28 -36 29 -77 2 -39 -26 -52 -25 -51 3 1 18 -4 22
-28 20 -30 -2 -69 -30 -61 -43 3 -4 -6 -10 -20 -12 -21 -5 -25 -1 -25 20 0 23
-3 24 -36 19 -20 -3 -44 -13 -53 -21 -12 -11 -21 -12 -34 -4 -26 14 -217 -15
-272 -42 -18 -9 -190 -58 -225 -65 -8 -1 -35 -12 -60 -23 -25 -12 -49 -22 -55
-22 -5 0 -21 -10 -34 -21 -20 -16 -24 -28 -22 -69 2 -69 -17 -86 -106 -95 -79
-8 -199 -33 -228 -47 -22 -12 -75 -59 -75 -67 0 -14 97 3 122 22 25 18 32 19
68 8 34 -10 41 -16 38 -34 -2 -18 -9 -22 -37 -19 -23 2 -41 -4 -55 -17 -52
-48 -111 -49 -140 -1 -13 23 -21 28 -34 20 -74 -41 -136 -62 -165 -56 -66 14
-127 0 -166 -38 -21 -20 -37 -26 -72 -26 -54 0 -110 -26 -126 -60 -22 -45 -50
-60 -113 -60 -54 0 -59 -2 -84 -35 -15 -19 -39 -38 -54 -41 -51 -11 -62 -15
-62 -24 0 -14 47 -21 74 -10 21 8 30 4 56 -20 34 -32 37 -33 118 -21 28 4 52
4 52 1 0 -8 -163 -36 -328 -55 -67 -8 -130 -19 -140 -23 -9 -5 -35 -13 -57
-17 -21 -3 -64 -20 -95 -36 -57 -30 -190 -147 -190 -167 0 -7 -7 -12 -15 -12
-8 0 -15 -9 -15 -20 0 -12 -5 -17 -14 -14 -8 3 -16 -3 -19 -16 -3 -12 -15 -24
-27 -27 -14 -4 -19 -11 -15 -23 4 -13 -3 -23 -23 -36 -22 -12 -28 -22 -24 -38
3 -11 1 -18 -3 -14 -11 10 -38 -29 -30 -42 3 -6 -1 -13 -9 -16 -9 -3 -16 -11
-16 -17 0 -5 -11 -25 -26 -44 -14 -18 -22 -33 -18 -33 4 0 0 -8 -8 -17 -17
-20 -33 -55 -37 -81 0 -5 -10 -18 -21 -30 -13 -14 -19 -31 -16 -51 2 -21 0
-28 -10 -24 -8 3 -14 0 -14 -6 0 -6 5 -11 10 -11 6 0 10 -6 10 -13 0 -16 -42
-57 -58 -57 -15 0 -16 -46 -2 -55 21 -13 10 -43 -18 -50 l-27 -8 35 -10 c30
-8 32 -10 15 -17 -18 -7 -18 -8 7 -15 15 -4 29 -12 31 -19 3 -7 19 -11 36 -10
17 1 31 -2 31 -7 0 -5 -10 -9 -22 -9 -21 0 -21 -1 -3 -13 17 -13 17 -14 -6
-20 -13 -4 -69 -10 -124 -13 -57 -4 -108 -13 -120 -20 -11 -8 -29 -14 -40 -14
-29 0 -131 -98 -139 -133 -4 -15 -10 -26 -14 -23 -4 2 -9 -5 -9 -17 -1 -12 -6
-23 -10 -24 -57 -19 -78 -40 -88 -84 -5 -25 -16 -53 -23 -61 -7 -9 -10 -27 -6
-44 4 -21 0 -35 -16 -51 -19 -21 -18 -27 3 -24 4 0 7 -16 7 -36 0 -25 -3 -33
-9 -25 -10 17 -21 -7 -21 -46 l1 -27 14 25 13 25 8 -29 c5 -23 3 -32 -12 -43
-13 -10 -19 -26 -19 -53 0 -22 4 -40 9 -40 5 0 6 -26 2 -57 -4 -32 -6 -68 -6
-80 0 -12 -5 -25 -10 -28 -6 -3 -10 -13 -10 -21 0 -10 7 -13 24 -8 13 3 27 1
30 -5 4 -6 2 -11 -3 -11 -6 0 -10 -3 -10 -7 3 -19 -2 -34 -10 -29 -10 6 -31
-37 -31 -64 0 -11 5 -20 10 -20 6 0 10 -9 10 -20 0 -13 5 -18 15 -14 10 4 15
0 15 -11 0 -9 -9 -19 -19 -22 -16 -4 -21 -17 -26 -66 -4 -34 -5 -75 -2 -92 2
-16 -2 -50 -10 -74 -17 -58 -16 -71 3 -71 14 0 16 -9 12 -51 -3 -28 -11 -55
-18 -59 -7 -4 -10 -12 -7 -18 6 -8 19 -142 17 -167 -7 -90 -14 -132 -21 -141
-9 -11 -6 -153 3 -170 3 -5 4 -35 3 -67 -2 -45 1 -57 11 -53 10 4 14 -5 14
-34 0 -29 -4 -40 -15 -40 -27 0 -32 -69 -10 -137 4 -14 3 -23 -3 -23 -6 0 -13
8 -16 18 -3 9 -3 4 1 -13 5 -25 7 -162 5 -320 -1 -88 3 -165 10 -165 5 0 8 -7
8 -15 0 -18 -16 -20 -23 -2 -3 6 -6 -7 -6 -30 -1 -23 4 -43 10 -45 15 -5 22
-89 7 -85 -6 1 -13 -4 -15 -10 -3 -8 4 -13 16 -13 27 0 27 -16 1 -23 -17 -4
-20 -14 -20 -65 0 -34 4 -63 8 -66 5 -3 8 -56 7 -118 0 -62 2 -118 6 -123 17
-23 20 -121 5 -162 -8 -22 -12 -44 -8 -48 4 -3 0 -10 -8 -15 -10 -7 -11 -10
-2 -10 9 0 12 -42 11 -182 0 -101 2 -191 6 -200 5 -12 2 -20 -8 -24 -13 -5
-14 -9 -4 -25 9 -15 9 -23 -1 -39 -17 -27 -15 -44 8 -85 21 -38 19 -55 -6 -55
-8 0 -14 -6 -14 -14 0 -8 -3 -21 -6 -30 -4 -11 -1 -16 10 -16 11 0 16 -9 16
-27 0 -17 -3 -23 -8 -16 -4 7 -7 -7 -7 -30 1 -24 5 -49 10 -57 13 -21 15 -39
4 -45 -4 -3 -3 -16 3 -30 6 -14 7 -35 2 -52 -4 -15 -6 -47 -5 -69 1 -23 -2
-45 -8 -49 -16 -9 -14 -19 9 -45 23 -26 24 -38 9 -77 -8 -22 -12 -24 -19 -13
-8 12 -10 11 -10 -6 0 -12 9 -32 19 -46 16 -20 18 -31 10 -72 -5 -26 -11 -51
-14 -55 -2 -5 0 -22 5 -40 6 -23 5 -35 -6 -45 -19 -20 -19 -50 1 -42 8 3 15 2
16 -2 6 -48 5 -90 -2 -102 -6 -10 -9 2 -10 35 -1 49 -1 49 -10 17 -7 -23 -6
-45 1 -67 6 -19 10 -78 10 -132 -2 -110 4 -237 15 -299 5 -26 3 -44 -3 -48 -8
-5 -8 -15 -1 -34 7 -18 7 -28 0 -30 -14 -5 -14 -39 0 -48 6 -3 15 -1 19 6 5 9
9 9 14 1 10 -15 -2 -31 -18 -25 -10 4 -13 -6 -13 -38 1 -38 -7 -134 -15 -178
-1 -8 1 -51 6 -95 12 -118 14 -384 3 -388 -6 -2 -4 -12 4 -25 11 -18 11 -24 1
-30 -10 -7 -10 -19 0 -63 11 -50 12 -70 8 -174 -2 -46 15 -180 26 -210 4 -11
4 -17 -1 -13 -15 14 -36 -20 -26 -44 29 -77 32 -98 20 -132 -16 -44 4 -171 35
-217 39 -59 46 -74 46 -96 0 -13 4 -23 10 -23 5 0 16 -17 25 -37 9 -21 21 -45
26 -53 5 -8 22 -42 39 -75 16 -33 38 -72 48 -87 24 -36 145 -168 154 -168 4 0
21 -13 38 -30 17 -17 37 -30 45 -30 8 0 15 -7 15 -15 0 -8 5 -15 10 -15 6 0
10 -4 10 -9 0 -4 -26 -9 -57 -10 -70 -1 -103 -26 -98 -73 12 -88 168 -133 610
-175 256 -24 1038 -24 1275 0 270 27 496 75 600 127 30 15 74 33 98 40 23 7
42 17 42 22 0 4 11 8 24 8 13 0 26 5 28 11 2 5 10 11 18 13 8 1 33 8 55 14
108 31 508 42 1665 46 1329 6 1591 -1 1890 -45 88 -14 186 -44 207 -65 8 -7
29 -14 48 -14 18 0 35 -6 38 -14 3 -7 28 -16 59 -19 29 -4 54 -11 56 -17 2 -5
20 -12 40 -16 56 -9 120 -35 126 -50 3 -8 16 -14 29 -14 13 0 52 -18 86 -40
34 -22 68 -40 76 -40 8 0 15 -4 15 -10 0 -5 9 -10 19 -10 29 0 51 -11 51 -25
0 -7 22 -18 51 -25 28 -7 53 -18 56 -26 2 -7 19 -18 36 -24 34 -11 109 -77
127 -109 5 -11 23 -22 40 -26 16 -4 30 -10 30 -13 0 -4 15 -13 33 -20 17 -8
43 -19 57 -27 45 -23 350 -91 459 -101 25 -2 60 -9 76 -14 17 -5 64 -12 105
-16 41 -3 84 -7 95 -9 47 -5 154 -16 200 -20 28 -2 95 -8 150 -14 291 -30
1361 -47 1755 -28 74 4 221 10 325 13 105 3 206 8 225 9 19 2 78 6 130 10 52
3 122 8 155 10 33 2 105 7 160 10 55 3 120 8 145 10 25 3 97 8 160 11 63 2
126 7 140 9 59 12 421 44 435 39 8 -4 15 -1 15 5 0 6 17 11 39 11 37 0 161 14
226 26 17 3 57 8 90 11 33 3 65 9 71 14 6 5 29 11 50 14 52 6 67 9 81 18 6 4
15 3 18 -3 5 -8 11 -7 21 1 8 6 14 8 14 4 0 -3 12 3 26 14 18 14 31 18 41 12
20 -11 96 6 106 24 5 10 15 11 36 5 22 -6 31 -5 35 6 3 9 20 14 45 14 22 0 42
4 46 9 3 5 19 12 36 16 20 5 29 11 25 21 -3 8 -1 14 3 14 5 0 11 -6 14 -12 3
-10 8 -10 18 1 12 12 12 13 -1 6 -8 -4 -5 2 7 13 12 12 29 19 37 16 9 -4 25 5
40 23 22 24 27 26 36 13 9 -13 11 -13 20 0 5 8 10 23 10 32 0 9 5 20 10 23 5
3 10 -3 10 -14 0 -12 5 -21 10 -21 6 0 10 21 10 46 0 32 5 51 16 59 13 9 14
16 5 33 -9 17 -7 28 9 57 20 35 20 35 0 35 -12 0 -20 7 -20 16 0 13 7 15 30
11 34 -7 39 5 10 26 -11 8 -17 17 -13 21 4 3 8 16 10 28 2 12 10 35 18 51 8
17 15 36 15 42 0 16 40 43 115 77 33 15 61 34 63 42 2 9 8 16 13 16 15 0 10
30 -6 36 -24 10 -17 31 17 56 43 30 133 85 183 110 85 44 234 160 306 239 40
45 78 89 83 98 5 9 16 22 23 29 7 7 20 28 28 47 18 36 72 95 123 135 37 28 57
60 91 140 49 117 73 164 110 219 21 31 52 85 68 121 17 36 43 92 59 125 15 33
31 80 34 105 7 42 21 120 55 300 15 81 38 262 54 430 6 58 13 123 15 145 10
79 26 254 41 450 8 110 20 245 25 300 13 138 20 283 26 535 2 118 8 269 11
335 12 209 6 420 -16 530 -30 153 -36 175 -65 245 -54 131 -86 298 -91 475 -6
216 -16 440 -21 465 -2 14 -13 151 -24 305 -11 154 -22 287 -25 295 -2 8 -9
60 -14 115 -23 225 -53 460 -60 470 -5 5 -11 28 -14 50 -12 79 -27 138 -42
168 -8 17 -15 40 -15 53 0 12 -4 24 -10 26 -5 2 -12 21 -15 43 -3 22 -10 49
-15 60 -4 11 -16 47 -25 80 -9 33 -21 69 -25 80 -4 11 -13 35 -20 52 -9 23
-23 36 -46 45 -33 12 -44 31 -24 43 24 15 11 58 -61 211 -16 34 -29 66 -29 72
0 17 -51 126 -67 145 -9 9 -12 17 -7 17 5 0 2 6 -6 13 -8 7 -23 29 -32 50 -10
20 -22 37 -28 37 -5 0 -10 7 -10 15 0 8 -4 15 -10 15 -5 0 -10 6 -10 14 0 8
-3 16 -7 18 -5 2 -21 23 -38 48 -16 25 -46 61 -65 80 -19 19 -52 55 -74 80
-21 25 -73 71 -115 103 -42 32 -99 76 -128 97 -29 22 -56 40 -61 40 -4 0 -22
10 -39 23 -17 12 -57 36 -89 52 -32 17 -64 36 -72 43 -7 6 -19 12 -26 12 -8 0
-19 7 -26 15 -7 8 -23 15 -35 15 -12 0 -28 7 -35 14 -6 8 -26 20 -43 26 -60
20 -147 67 -140 75 5 4 -6 6 -24 3 -19 -3 -34 0 -37 7 -2 7 -26 18 -53 24 -26
7 -70 23 -98 36 -62 29 -88 39 -98 36 -4 0 -10 6 -13 14 -4 8 -12 15 -20 15
-8 0 -11 -6 -7 -15 5 -13 2 -14 -21 -4 -30 14 -33 26 -8 32 9 2 -4 4 -30 4
-27 0 -54 5 -60 10 -15 11 -94 10 -121 -2 -9 -4 -29 -5 -42 -3 -14 3 -25 1
-25 -3 0 -5 7 -9 15 -9 8 0 15 -4 15 -10 0 -5 -4 -10 -10 -10 -18 0 -11 -40 8
-42 9 0 -3 -4 -28 -8 -39 -6 -40 -7 -12 -8 18 -1 32 -7 32 -14 0 -7 3 -23 6
-35 4 -14 2 -23 -5 -23 -6 0 -11 9 -11 20 0 13 -7 20 -19 20 -24 0 -36 -16
-17 -23 17 -7 32 -68 27 -106 0 -5 -10 -13 -21 -16 -12 -4 -20 -15 -20 -28 0
-20 1 -20 14 -2 13 18 14 18 25 -3 11 -20 9 -22 -14 -22 -17 0 -25 -5 -22 -12
2 -7 10 -12 16 -11 7 2 10 -10 8 -32 -1 -19 -5 -35 -9 -35 -5 0 -8 -11 -8 -25
0 -14 -5 -25 -11 -25 -5 0 -8 -4 -5 -9 3 -4 -2 -15 -12 -24 -21 -19 -23 -97
-3 -121 7 -8 11 -25 9 -38 -2 -16 -11 -2 -32 52 -15 41 -32 84 -37 95 -4 11
-16 45 -25 75 -9 30 -23 73 -31 95 -9 22 -50 144 -93 270 -43 127 -120 343
-170 480 -120 325 -130 349 -184 483 -25 63 -46 118 -46 123 0 18 -114 259
-143 302 -10 15 -16 27 -12 27 3 0 -3 10 -15 22 -11 12 -20 27 -20 34 0 6 -6
14 -13 17 -7 3 -19 24 -27 47 -12 35 -12 43 0 50 11 7 11 11 1 24 -8 9 -14 46
-14 88 -2 64 -4 73 -20 71 -15 -1 -18 4 -15 28 3 16 1 29 -4 29 -11 0 -62 112
-81 175 -26 89 -170 309 -261 397 -52 50 -196 130 -293 162 -135 44 -491 106
-610 106 -28 0 -54 4 -58 10 -3 5 -15 6 -28 1 -12 -5 -115 -3 -232 4 -115 8
-327 16 -470 19 -352 8 -1417 15 -1485 10z m45 -139 c54 3 91 9 93 15 2 6 11
1 20 -11 13 -19 17 -20 26 -7 12 16 96 13 96 -3 0 -17 28 -9 33 9 3 10 5 6 6
-11 0 -16 5 -26 11 -22 5 3 7 12 3 20 -6 17 5 19 26 6 7 -5 11 -13 7 -19 -3
-6 -2 -13 4 -17 5 -3 10 -1 10 4 0 6 6 11 14 11 8 0 16 4 18 9 2 4 14 12 27
16 16 5 21 4 16 -4 -5 -8 1 -10 18 -6 22 6 24 4 20 -19 -3 -14 -8 -24 -12 -22
-13 8 -32 -11 -34 -32 -1 -19 -3 -20 -17 -7 -21 19 -30 19 -30 0 0 -25 -18
-17 -28 13 l-10 27 -1 -28 c-1 -16 -5 -26 -11 -22 -6 4 -8 11 -5 16 10 15 -7
10 -26 -7 -10 -9 -24 -14 -31 -11 -19 7 -33 3 -30 -7 2 -5 -3 -13 -10 -17 -18
-12 -60 -11 -53 1 3 6 -1 10 -9 10 -10 0 -13 -6 -10 -15 5 -11 -1 -15 -25 -15
-17 0 -31 5 -31 10 0 6 9 10 20 10 11 0 20 5 20 11 0 5 -3 8 -7 6 -30 -16 -60
-20 -143 -19 l-95 0 91 -8 c126 -11 211 -48 302 -133 51 -49 46 -59 -58 -115
-25 -13 -73 -40 -108 -59 -112 -62 -123 -22 -27 94 36 43 65 81 65 84 0 11
-78 39 -109 39 -16 0 -55 -10 -85 -22 -130 -49 -199 -190 -150 -306 61 -147
273 -189 385 -77 50 51 89 44 89 -15 0 -25 -63 -73 -145 -112 -56 -26 -83 -32
-160 -36 -162 -8 -291 38 -376 136 -52 62 -69 108 -69 197 0 90 33 158 109
226 34 30 49 49 38 49 -9 0 -27 -11 -41 -25 -14 -14 -31 -25 -38 -25 -16 0
-51 -39 -54 -58 -2 -8 -6 -17 -9 -20 -4 -4 -5 2 -3 13 2 16 -3 20 -27 21 -19
0 -29 5 -27 14 2 8 -3 10 -15 5 -10 -4 -26 -8 -35 -9 -10 0 -18 -8 -18 -18 0
-25 -36 -23 -43 2 -3 11 -12 20 -21 20 -21 0 -20 -10 2 -26 16 -13 16 -13 -1
-14 -10 0 -20 7 -23 15 -9 22 -21 18 -29 -7 l-8 -23 -4 23 c-2 12 -8 22 -13
22 -5 0 -11 -10 -13 -22 -4 -20 -4 -19 -6 5 -1 27 -23 38 -36 17 -3 -5 -18
-10 -33 -9 -24 0 -25 1 -7 9 17 7 17 9 3 9 -10 1 -18 6 -18 12 0 5 -10 9 -22
7 -17 -2 -24 3 -26 20 -2 12 -7 20 -12 17 -5 -3 -8 15 -7 39 2 40 6 46 42 69
62 38 81 46 121 53 21 3 56 13 76 21 22 9 51 13 68 10 16 -4 32 -3 34 2 8 12
125 22 301 26 81 2 149 6 153 9 3 3 12 0 21 -8 12 -11 38 -13 106 -11z m522
-45 c14 -22 4 -33 -17 -19 -12 7 -12 9 -1 9 11 0 11 3 1 15 -7 8 -8 15 -4 15
5 0 15 -9 21 -20z m33 5 c0 -8 -2 -15 -4 -15 -2 0 -6 7 -10 15 -3 8 -1 15 4
15 6 0 10 -7 10 -15z m-93 -41 c-3 -3 -12 -4 -19 -1 -8 3 -5 6 6 6 11 1 17 -2
13 -5z m259 -180 c44 -21 103 -82 111 -114 9 -41 51 -188 84 -294 19 -60 27
-102 21 -108 -5 -5 -49 -8 -98 -6 l-89 3 -15 32 c-16 35 -31 41 -49 19 -21
-25 -110 -57 -168 -59 -102 -4 -194 63 -215 156 -28 127 132 232 281 183 69
-22 72 -22 59 17 -19 56 -21 57 -150 57 -99 0 -120 3 -125 16 -10 26 16 40
132 74 61 17 115 33 120 35 25 9 70 4 101 -11z m443 -29 l38 -35 39 16 c22 8
53 22 71 30 74 34 146 4 162 -66 4 -20 9 -130 10 -244 l2 -208 -89 5 c-49 2
-94 7 -101 11 -7 5 -11 60 -11 172 0 153 -1 165 -21 185 -18 18 -23 19 -42 6
-21 -14 -22 -22 -24 -177 -1 -90 -3 -171 -6 -179 -3 -14 -18 -15 -98 -11 l-94
5 -5 195 -5 195 -45 3 c-76 4 -90 10 -90 37 0 14 1 25 3 25 1 0 47 16 102 34
131 45 155 45 204 1z m-2259 6 c0 -6 -4 -13 -10 -16 -5 -3 -10 1 -10 9 0 9 5
16 10 16 6 0 10 -4 10 -9z m3008 -20 c175 -89 224 -302 101 -436 -49 -54 -110
-78 -193 -79 -241 -1 -378 300 -211 464 81 80 206 101 303 51z m431 -28 l36
-36 45 17 c121 47 127 49 156 34 15 -7 37 -26 48 -41 20 -26 21 -44 24 -248 3
-192 1 -220 -13 -225 -8 -4 -50 -2 -93 2 l-77 9 -5 178 c-5 181 -9 196 -46
197 -31 0 -36 -32 -38 -202 l-1 -173 -90 4 c-49 2 -92 5 -95 8 -3 3 -7 91 -10
196 l-5 192 -59 5 c-41 3 -62 10 -70 22 -15 25 -4 32 99 67 122 41 148 40 194
-6z m-4269 -463 c0 -5 -5 -10 -11 -10 -5 0 -7 5 -4 10 3 6 8 10 11 10 2 0 4
-4 4 -10z m-791 -1031 c-16 -10 -23 -4 -14 10 3 6 11 8 17 5 6 -4 5 -9 -3 -15z
m-3147 -180 c25 -18 28 -24 16 -35 -11 -11 -21 -11 -51 -2 -34 11 -39 10 -53
-10 -17 -25 -50 -28 -77 -8 -28 22 -11 48 27 41 24 -5 38 -1 56 14 32 26 45
26 82 0z m152 -62 c45 -12 77 -38 44 -36 -51 3 -152 27 -156 37 -5 16 48 15
112 -1z m115 -33 c2 -2 2 -7 -2 -10 -8 -9 -47 6 -47 17 0 9 37 3 49 -7z m951
-9 c0 -17 -4 -18 -37 -9 -33 9 -28 24 7 24 20 0 30 -5 30 -15z m-1056 -11 c9
-3 16 -13 16 -21 0 -10 -6 -13 -16 -9 -9 3 -18 6 -20 6 -2 0 -4 7 -4 15 0 17
2 18 24 9z m-57 -26 c15 -7 32 -18 36 -25 4 -7 16 -13 26 -13 9 0 48 -16 87
-35 38 -19 75 -35 82 -35 7 0 10 -4 7 -10 -3 -5 -2 -10 3 -10 15 0 22 26 22
77 0 32 3 43 13 39 6 -3 19 -9 27 -12 17 -6 50 -70 41 -80 -3 -3 -6 -11 -6
-17 0 -7 -10 -12 -23 -11 -12 0 -22 -3 -22 -8 0 -4 -10 -8 -21 -8 -16 0 -20
-5 -16 -20 3 -11 2 -22 -2 -25 -4 -2 -5 -19 -3 -37 5 -31 4 -32 -13 -18 -12
10 -20 11 -22 4 -2 -6 -17 -9 -33 -6 -19 3 -27 9 -23 17 2 8 12 11 21 8 13 -4
14 -3 6 6 -14 16 -64 -5 -65 -28 -1 -12 -3 -11 -6 3 -4 14 -7 16 -13 6 -6 -10
-14 -9 -36 3 -90 48 -289 85 -467 88 -135 2 -148 18 -16 21 85 1 124 11 114
29 -4 5 -1 9 4 9 6 0 11 6 11 14 0 17 33 26 80 22 48 -4 99 12 133 40 33 28
36 28 74 12z m1102 -118 c40 0 18 -10 -45 -20 -60 -10 -114 -5 -114 10 0 14
31 19 85 14 28 -2 61 -4 74 -4z m-2171 -79 c10 -6 9 -10 -7 -14 -21 -5 -36 5
-24 17 8 8 15 7 31 -3z m952 -23 c47 -12 110 -35 140 -52 64 -35 150 -95 150
-105 0 -3 10 -17 23 -31 23 -26 37 -78 18 -66 -6 4 -11 2 -11 -3 0 -6 5 -11
11 -11 7 0 18 -8 25 -17 11 -14 15 -15 22 -5 7 10 11 10 22 -3 10 -13 9 -15
-7 -15 -10 0 -24 -5 -31 -12 -9 -9 -12 -8 -12 6 0 14 -6 17 -27 13 -15 -3 -34
-1 -42 4 -28 16 -76 32 -88 30 -7 -1 -13 7 -13 18 0 24 -16 36 -24 19 -5 -10
-7 -10 -12 0 -3 6 -10 12 -15 12 -6 0 -7 -4 -4 -10 3 -5 1 -10 -5 -10 -6 0
-13 6 -16 14 -3 8 -13 14 -22 14 -9 -1 -34 2 -55 6 -27 5 -37 11 -33 21 3 8 0
17 -6 21 -7 4 -8 3 -4 -4 8 -14 -3 -15 -23 -3 -7 5 -10 14 -7 20 4 7 -1 11
-13 11 -10 0 -21 -4 -23 -10 -2 -6 -18 -6 -43 0 -22 6 -92 13 -157 16 -87 5
-115 10 -111 20 5 15 -20 23 -62 19 -38 -3 -38 -3 -28 -17 15 -25 10 -36 -18
-40 -18 -3 -29 0 -29 7 0 7 -9 20 -20 30 -11 10 -20 13 -20 8 0 -6 -18 -13
-40 -15 -48 -4 -57 19 -10 29 33 6 36 13 18 31 -17 17 -36 15 -41 -5 -3 -10
-5 -1 -6 19 -1 42 -10 38 119 58 41 7 82 13 90 15 8 1 92 1 185 -1 132 -3 189
-9 255 -26z m855 22 c3 -5 1 -10 -4 -10 -6 0 -11 5 -11 10 0 6 2 10 4 10 3 0
8 -4 11 -10z m-1519 -68 c1 -12 -3 -22 -9 -22 -5 0 -7 9 -4 20 3 10 1 21 -4
24 -5 2 -4 3 3 2 7 -1 14 -12 14 -24z m-36 -22 c0 -5 -4 -10 -10 -10 -5 0 -10
5 -10 10 0 6 5 10 10 10 6 0 10 -4 10 -10z m2465 -29 c0 -7 9 -19 19 -27 11
-8 14 -14 7 -14 -16 0 6 -23 31 -33 21 -8 13 -37 -11 -38 -10 0 -11 -2 -3 -6
6 -2 10 -9 6 -14 -3 -5 2 -9 11 -9 9 0 13 5 10 10 -9 14 7 12 28 -4 9 -7 17
-19 17 -27 1 -8 7 -3 14 10 13 24 14 24 21 -17 5 -32 3 -47 -12 -66 -10 -14
-23 -26 -30 -26 -6 0 -12 -8 -12 -17 0 -10 -1 -33 -1 -50 -1 -21 -6 -33 -15
-33 -9 0 -12 -8 -10 -21 3 -12 0 -19 -8 -16 -13 4 -77 -54 -77 -70 0 -15 -28
-24 -54 -17 -17 4 -25 1 -28 -14 -4 -12 -17 -21 -36 -24 -40 -6 -48 0 -57 40
-9 43 -21 40 -29 -8 -3 -22 -11 -40 -16 -40 -5 0 -7 6 -4 14 3 8 1 23 -5 33
-10 17 -10 16 -11 -4 0 -12 -4 -24 -9 -27 -11 -7 -21 17 -21 52 0 14 -6 33
-14 41 -8 9 -17 28 -21 43 -6 24 -5 26 17 21 23 -5 23 -5 3 11 -20 16 -20 16
4 37 l25 20 12 -23 c11 -21 12 -19 7 20 -4 26 -2 42 5 42 6 0 21 21 34 47 13
25 30 48 39 50 9 3 22 22 29 44 9 25 19 39 29 38 33 -3 40 2 46 31 4 16 15 32
26 35 10 4 19 11 19 17 0 5 6 8 13 6 6 -3 12 -10 12 -17z m125 -110 c0 -6 -4
-13 -10 -16 -5 -3 -10 1 -10 9 0 9 5 16 10 16 6 0 10 -4 10 -9z m2090 -161 c0
-5 -5 -10 -11 -10 -5 0 -7 5 -4 10 3 6 8 10 11 10 2 0 4 -4 4 -10z m-2070 -20
c0 -5 -4 -10 -10 -10 -5 0 -10 5 -10 10 0 6 5 10 10 10 6 0 10 -4 10 -10z
m-60 -130 c0 -5 -4 -10 -10 -10 -5 0 -10 5 -10 10 0 6 5 10 10 10 6 0 10 -4
10 -10z m-406 -43 c-3 -9 -13 -17 -21 -17 -21 0 -53 19 -53 31 0 6 4 8 9 5 4
-3 17 1 27 9 15 11 22 11 32 1 7 -7 10 -20 6 -29z m-84 13 c0 -5 -4 -10 -10
-10 -5 0 -10 5 -10 10 0 6 5 10 10 10 6 0 10 -4 10 -10z m-10 -37 c-1 -14 -39
-58 -45 -52 -13 14 7 59 26 59 10 0 19 -3 19 -7z m-75 -13 c3 -5 2 -10 -4 -10
-5 0 -13 5 -16 10 -3 6 -2 10 4 10 5 0 13 -4 16 -10z m191 -10 c8 0 14 -4 14
-10 0 -12 -20 -13 -39 -1 -8 5 -10 14 -5 22 6 10 9 10 12 1 2 -7 10 -12 18
-12z m5270 7 c4 -4 -2 -7 -14 -7 -12 0 -22 4 -22 9 0 10 26 9 36 -2z m-126 -6
c0 -22 -55 -27 -64 -6 -4 12 3 15 29 15 19 0 35 -4 35 -9z m-400 -51 c0 -4 11
-11 25 -14 14 -4 25 -11 25 -17 0 -16 -29 -22 -45 -9 -9 7 -18 10 -22 6 -3 -3
0 -6 7 -6 26 0 -5 -18 -42 -25 -36 -7 -52 5 -28 20 6 3 10 17 10 30 0 17 7 25
23 27 26 5 47 -1 47 -12z m695 -25 c46 -27 84 -65 110 -112 16 -27 17 -36 6
-56 -16 -29 -40 -33 -279 -43 -161 -7 -163 -7 -169 15 -3 11 -16 24 -29 27
-29 7 -29 14 -5 62 30 58 92 112 147 127 68 20 168 11 219 -20z m-595 10 c0
-8 -4 -15 -10 -15 -5 0 -10 7 -10 15 0 8 5 15 10 15 6 0 10 -7 10 -15z m-4840
-29 c0 -3 -4 -8 -10 -11 -5 -3 -10 -1 -10 4 0 6 5 11 10 11 6 0 10 -2 10 -4z
m4464 -68 c-12 -8 -238 -68 -254 -68 -5 0 2 16 15 36 14 20 25 41 25 45 0 14
52 36 99 43 24 3 46 8 49 11 3 2 21 -10 41 -28 25 -22 33 -34 25 -39z m-6051
24 c47 -21 48 -22 33 -43 -31 -45 -140 -101 -245 -126 -48 -11 -94 -14 -168
-10 -105 6 -154 22 -172 56 -8 15 -2 24 37 52 26 19 76 49 112 67 l65 33 145
-3 c123 -3 152 -7 193 -26z m5547 7 c-6 -11 -18 -23 -26 -26 -13 -5 -13 -7 -2
-14 10 -7 9 -9 -4 -9 -9 0 -20 -5 -24 -11 -5 -8 3 -10 25 -7 42 6 29 -4 -41
-32 -55 -21 -62 -28 -59 -57 1 -7 -3 -23 -9 -35 -11 -22 -10 -22 4 -4 9 11 16
29 16 40 0 17 14 26 75 45 41 13 76 29 78 35 3 6 14 2 28 -11 13 -12 36 -25
52 -28 28 -7 36 -23 15 -30 -7 -2 -62 -23 -123 -46 -60 -22 -132 -45 -159 -50
-27 -4 -58 -17 -70 -28 -26 -23 -144 -83 -210 -105 -53 -18 -76 -10 -76 26 0
32 -44 20 -48 -14 -3 -22 2 -27 27 -33 36 -8 51 -25 22 -25 -18 0 -86 -36
-151 -80 -14 -10 -44 -27 -67 -39 -23 -11 -58 -32 -79 -46 -20 -14 -40 -25
-44 -25 -4 0 -11 16 -14 36 -7 32 -10 35 -39 32 -27 -3 -32 -7 -29 -27 1 -13
-5 -34 -13 -47 -8 -13 -15 -32 -15 -42 0 -11 -6 -24 -12 -29 -21 -17 -67 -21
-85 -8 -14 11 -12 16 27 51 23 21 46 41 51 42 15 6 10 22 -6 22 -8 0 -15 -4
-15 -10 0 -5 -8 -10 -17 -10 -10 0 -31 -9 -48 -20 -16 -11 -37 -17 -46 -15
-13 4 -17 0 -15 -20 1 -18 7 -25 21 -25 22 0 10 -15 -20 -24 -17 -5 -21 -2
-20 20 0 23 -4 27 -33 28 -17 1 -32 -2 -32 -6 0 -5 -6 -8 -12 -9 -7 0 -32 -15
-55 -32 -22 -18 -67 -52 -100 -77 -91 -69 -227 -194 -356 -324 -64 -66 -119
-117 -122 -114 -3 3 4 22 16 42 28 49 18 57 -20 15 -29 -31 -43 -68 -21 -54
16 10 11 -22 -6 -39 -14 -15 -34 -21 -34 -12 0 3 4 16 10 30 5 15 6 26 0 26
-4 0 -11 -8 -13 -17 -4 -14 -5 -13 -6 4 0 12 11 35 27 51 15 15 40 46 56 67
55 76 383 391 526 506 214 171 374 280 590 401 58 33 194 92 290 127 104 38
327 87 408 90 40 1 42 0 32 -20z m2645 -69 c3 -5 1 -10 -4 -10 -6 0 -11 5 -11
10 0 6 2 10 4 10 3 0 8 -4 11 -10z m2345 -40 c0 -5 -2 -10 -4 -10 -3 0 -8 5
-11 10 -3 6 -1 10 4 10 6 0 11 -4 11 -10z m-4120 -39 c-8 -6 -37 -13 -65 -16
-27 -4 -75 -13 -105 -21 -30 -7 -111 -27 -180 -43 -172 -41 -452 -135 -585
-195 -282 -128 -373 -176 -548 -286 -138 -88 -152 -97 -199 -130 -20 -14 -64
-45 -99 -69 -35 -24 -74 -53 -86 -64 -13 -11 -23 -15 -23 -9 0 6 12 19 28 29
15 10 75 57 134 105 59 49 110 88 112 88 3 0 33 19 68 43 35 24 99 63 143 87
44 24 98 55 120 69 136 86 559 260 760 311 268 70 363 89 530 109 6 0 3 -3 -5
-8z m-4719 -95 c1 -17 2 -17 6 -3 6 24 40 21 48 -4 4 -11 5 -21 3 -22 -71 -37
-75 -38 -103 -27 -21 8 -25 14 -17 22 7 7 12 24 12 39 0 23 3 26 25 21 17 -3
25 -11 26 -26z m5453 13 c-3 -5 -10 -7 -15 -3 -5 3 -7 10 -3 15 3 5 10 7 15 3
5 -3 7 -10 3 -15z m-964 -33 c0 -11 -19 -15 -25 -6 -3 5 1 10 9 10 9 0 16 -2
16 -4z m341 -59 c-8 -8 -11 -7 -11 4 0 9 3 19 7 23 4 4 9 2 11 -4 3 -7 -1 -17
-7 -23z m-109 8 c0 -5 -5 -11 -11 -13 -6 -2 -11 4 -11 13 0 9 5 15 11 13 6 -2
11 -8 11 -13z m75 6 c10 9 13 8 13 -5 0 -22 -36 -21 -45 2 -5 13 -4 14 6 5 9
-9 16 -10 26 -2z m-321 -16 c-22 -16 -46 -20 -46 -7 0 15 13 22 39 22 25 -1
25 -1 7 -15z m158 6 c3 -5 15 -7 26 -4 14 4 20 0 20 -11 0 -9 8 -16 20 -16 17
0 19 -2 8 -14 -9 -9 -17 -11 -25 -4 -8 6 -17 3 -30 -11 -11 -13 -29 -21 -49
-21 -38 0 -66 -26 -43 -41 8 -5 23 -9 34 -10 11 0 2 -5 -20 -10 -22 -6 -50 -7
-63 -4 -18 4 -22 2 -20 -11 2 -11 -5 -18 -20 -20 -37 -6 -293 -94 -334 -115
-21 -11 -42 -19 -48 -19 -6 0 -38 -13 -72 -30 -33 -16 -66 -30 -74 -30 -8 0
-14 -4 -14 -10 0 -5 -6 -10 -14 -10 -8 0 -70 -29 -138 -63 -191 -99 -218 -114
-237 -131 -21 -19 -70 -26 -70 -11 0 6 6 9 14 9 22 -2 25 21 4 34 -16 10 -19
9 -19 -3 0 -8 -6 -15 -14 -15 -7 0 -19 -7 -26 -15 -11 -13 -14 -13 -25 2 -10
13 -10 22 -3 30 7 9 7 13 0 13 -5 0 -15 -7 -23 -16 -10 -12 -10 -20 -1 -34 9
-15 8 -19 -5 -24 -18 -7 -16 -8 -32 22 -10 18 -9 27 6 47 10 13 24 25 30 25 7
0 12 6 10 13 -1 7 8 12 23 12 15 0 25 6 25 15 0 8 17 19 39 25 22 6 46 21 53
32 13 19 12 20 -14 15 -15 -3 -45 -18 -67 -34 -21 -15 -44 -28 -49 -28 -6 0
-17 -7 -26 -14 -83 -76 -110 -96 -116 -86 -10 17 56 82 77 76 10 -2 16 0 13 4
-3 5 5 14 17 21 13 7 27 18 31 25 8 14 91 56 135 69 16 5 22 2 22 -9 0 -27 44
-18 75 14 16 17 36 30 45 30 9 0 38 11 66 24 27 13 57 26 67 29 9 4 17 14 17
23 0 11 -5 14 -17 9 -10 -4 -23 -8 -30 -8 -7 0 -14 -6 -17 -14 -3 -7 -11 -13
-17 -13 -7 0 -18 -8 -25 -17 -16 -23 -28 -11 -19 17 8 25 194 120 278 142 45
12 50 11 63 -6 13 -18 15 -18 57 -2 42 16 87 49 87 64 0 4 15 13 33 20 17 7
40 18 49 23 27 14 31 11 24 -17 -5 -17 -3 -23 4 -19 5 3 10 15 10 26 0 10 5
19 10 19 6 0 10 -4 10 -10 0 -5 8 -10 18 -10 14 0 15 2 2 10 -11 7 -12 10 -2
10 7 0 20 7 29 16 20 19 58 15 57 -7 -1 -13 7 -15 45 -11 25 3 54 10 64 17 10
7 26 11 36 8 9 -2 23 3 30 11 15 18 27 20 35 7z m246 -1 c0 -5 -4 -10 -10 -10
-5 0 -10 5 -10 10 0 6 5 10 10 10 6 0 10 -4 10 -10z m4080 -30 c0 -5 -4 -10
-10 -10 -5 0 -10 5 -10 10 0 6 5 10 10 10 6 0 10 -4 10 -10z m20 -30 c0 -5 -4
-10 -10 -10 -5 0 -10 5 -10 10 0 6 5 10 10 10 6 0 10 -4 10 -10z m-4895 -10
c-3 -5 -12 -10 -18 -10 -7 0 -25 -7 -40 -15 -38 -20 -97 -35 -97 -25 0 4 26
19 58 33 58 26 108 35 97 17z m-205 -30 c0 -5 -5 -10 -11 -10 -5 0 -7 5 -4 10
3 6 8 10 11 10 2 0 4 -4 4 -10z m-100 -44 c0 -2 -9 -6 -20 -9 -11 -3 -20 -1
-20 4 0 5 9 9 20 9 11 0 20 -2 20 -4z m-5735 -25 c-14 -14 -207 -29 -453 -36
-213 -7 -214 -6 -203 14 11 19 22 21 174 24 402 7 491 7 482 -2z m7620 -1
c214 -13 400 -37 520 -64 33 -8 94 -22 135 -31 105 -24 286 -77 355 -104 11
-5 65 -25 120 -46 84 -31 229 -96 285 -126 8 -5 62 -34 120 -65 58 -32 116
-65 130 -74 14 -10 68 -46 120 -80 189 -126 505 -390 482 -403 -4 -3 -28 12
-53 35 -101 93 -187 163 -239 196 -30 20 -73 50 -95 68 -69 55 -263 173 -420
254 -248 128 -462 208 -808 302 -224 60 -266 69 -342 74 -33 2 -109 8 -170 14
-139 13 -500 5 -670 -14 -354 -41 -692 -129 -1015 -265 -150 -62 -569 -286
-600 -321 -8 -8 -112 -84 -145 -105 -16 -10 -95 -74 -175 -141 -218 -184 -513
-492 -595 -622 -17 -27 -88 -127 -94 -132 -17 -14 -51 -71 -51 -84 0 -8 -4
-18 -10 -21 -18 -11 -80 -112 -80 -131 0 -11 -9 -27 -20 -37 -12 -10 -18 -23
-14 -29 4 -6 3 -8 -3 -5 -6 4 -16 0 -23 -8 -10 -12 -10 -15 1 -15 10 -1 8 -4
-3 -11 -10 -5 -18 -19 -18 -30 0 -11 -14 -40 -30 -65 -17 -24 -30 -50 -28 -57
2 -7 -10 -38 -27 -68 -34 -62 -55 -112 -62 -151 -3 -16 -9 -28 -14 -28 -5 0
-9 -15 -9 -32 0 -18 -11 -55 -24 -81 -13 -27 -21 -59 -18 -72 2 -14 -3 -31
-12 -40 -9 -9 -16 -24 -16 -33 0 -9 -14 -71 -30 -137 -17 -66 -33 -138 -36
-160 -3 -22 -9 -56 -14 -75 -5 -19 -14 -71 -20 -115 -7 -44 -14 -83 -16 -87
-20 -32 -19 -505 2 -713 48 -483 153 -865 349 -1270 434 -897 1218 -1564 2165
-1839 830 -242 1708 -174 2495 194 985 460 1726 1372 1980 2435 107 452 133
947 69 1345 -39 247 -80 415 -156 644 -21 65 -37 123 -36 128 5 14 102 -280
132 -397 34 -135 61 -289 87 -480 29 -215 32 -611 6 -825 -38 -314 -118 -635
-228 -916 -424 -1082 -1358 -1912 -2474 -2197 -318 -82 -558 -111 -910 -110
-308 1 -476 18 -750 79 -147 32 -187 43 -330 87 -456 142 -901 398 -1280 738
-165 147 -220 207 -449 484 -36 43 -226 321 -226 330 0 3 -11 22 -24 43 -13
21 -49 87 -80 147 -283 548 -422 1137 -403 1715 11 315 50 611 85 638 14 10
14 14 3 21 -11 7 -11 18 -1 62 7 30 18 81 25 114 24 111 64 249 95 330 18 44
38 100 46 124 8 24 18 49 23 55 4 6 14 29 21 51 7 22 16 45 20 50 5 6 21 42
36 80 15 39 32 77 38 85 6 8 16 24 22 35 31 59 55 101 116 205 61 105 86 143
205 309 52 73 220 271 303 356 82 85 232 222 365 334 103 87 286 217 370 265
169 96 221 123 368 190 142 65 300 122 497 180 104 30 275 64 435 85 300 41
456 47 720 31z m-8315 -25 c0 -29 -13 -31 -61 -11 l-34 15 25 10 c46 18 70 14
70 -14z m6297 -11 c-3 -3 -12 -4 -19 -1 -8 3 -5 6 6 6 11 1 17 -2 13 -5z m-57
-24 c0 -5 -5 -10 -11 -10 -5 0 -7 5 -4 10 3 6 8 10 11 10 2 0 4 -4 4 -10z
m-3558 -45 c16 -14 37 -25 47 -25 25 0 33 -11 20 -27 -19 -22 -81 -16 -106 11
-23 24 -29 47 -16 59 11 12 24 8 55 -18z m3598 15 c0 -6 -8 -13 -17 -17 -36
-12 -124 -56 -129 -64 -3 -5 -15 -9 -27 -9 -30 0 -14 12 78 59 86 44 95 46 95
31z m-6180 -200 c0 -6 -20 -9 -45 -8 -58 4 -58 18 0 18 25 0 45 -5 45 -10z
m360 -6 c0 -2 -9 -4 -21 -4 -11 0 -18 4 -14 10 5 8 35 3 35 -6z m95 6 c3 -6
-1 -7 -9 -4 -18 7 -21 14 -7 14 6 0 13 -4 16 -10z m-285 -10 c0 -13 -20 -13
-40 0 -12 8 -9 10 13 10 15 0 27 -4 27 -10z m240 -5 c-10 -12 -16 -13 -26 -4
-20 16 -18 19 12 19 22 0 25 -2 14 -15z m143 8 c-7 -2 -21 -2 -30 0 -10 3 -4
5 12 5 17 0 24 -2 18 -5z m-1423 -45 c0 -13 -43 15 -48 31 -3 9 5 7 22 -4 14
-10 26 -22 26 -27z m-810 -24 c0 -17 -22 -14 -28 4 -2 7 3 12 12 12 9 0 16 -7
16 -16z m7410 6 c0 -5 -5 -10 -12 -10 -6 0 -22 -9 -34 -21 -12 -12 -28 -19
-34 -17 -7 2 5 16 26 30 43 29 54 33 54 18z m1518 5 c-3 -3 -36 -14 -74 -24
-80 -22 -182 -57 -239 -82 -22 -10 -89 -39 -150 -64 -121 -52 -380 -184 -481
-246 -35 -21 -67 -39 -70 -39 -2 0 -12 -6 -20 -12 -8 -7 -20 -18 -27 -23 -21
-18 -66 -45 -74 -45 -4 0 10 16 31 35 22 19 46 35 53 35 7 0 13 5 13 10 0 6 6
10 14 10 14 0 29 24 30 49 1 8 9 19 19 25 14 8 20 8 27 -4 7 -12 12 -12 22 -2
10 10 10 14 0 21 -8 5 -4 14 17 29 44 32 118 72 134 72 8 0 17 6 20 13 7 18
236 129 252 123 8 -3 16 2 19 10 3 8 14 14 24 14 10 0 22 4 28 9 13 14 84 25
84 14 0 -5 10 -9 23 -7 12 1 25 3 30 3 4 1 7 5 7 11 0 5 -9 9 -19 7 -11 -1
-20 2 -21 7 -1 7 64 31 98 36 2 0 0 -4 -3 -10 -3 -5 -15 -10 -26 -10 -10 0
-19 -5 -19 -11 0 -14 50 -6 155 26 74 22 135 32 123 20z m-1380 -77 c-24 -43
-48 -50 -48 -14 0 23 12 32 48 35 10 1 10 -3 0 -21z m-7558 3 c0 -6 -4 -13
-10 -16 -5 -3 -10 1 -10 9 0 9 5 16 10 16 6 0 10 -4 10 -9z m6720 -41 c0 -5
-4 -10 -10 -10 -5 0 -10 5 -10 10 0 6 5 10 10 10 6 0 10 -4 10 -10z m750 3
c-1 -10 -26 -43 -33 -43 -3 0 0 11 6 25 11 23 27 34 27 18z m130 -29 c0 -8 -4
-12 -10 -9 -5 3 -10 13 -10 21 0 8 5 12 10 9 6 -3 10 -13 10 -21z m2032 -210
c50 -24 68 -55 70 -120 2 -54 0 -58 -39 -95 -25 -23 -55 -40 -78 -45 -46 -8
-108 9 -135 38 -26 28 -43 91 -35 128 19 84 134 134 217 94z m-324 -35 c29
-10 51 -43 38 -56 -3 -3 -17 2 -30 11 -45 29 -122 17 -153 -23 -7 -9 -13 -38
-13 -64 0 -42 4 -53 31 -78 17 -16 36 -29 43 -29 34 0 88 24 102 45 18 28 54
34 54 10 0 -37 -84 -85 -149 -85 -36 0 -98 40 -112 72 -19 46 -6 124 26 158
40 42 108 58 163 39z m-1386 -31 c-7 -7 -12 -8 -12 -2 0 14 12 26 19 19 2 -3
-1 -11 -7 -17z m-1802 -23 c0 -8 -4 -15 -10 -15 -5 0 -10 7 -10 15 0 8 5 15
10 15 6 0 10 -7 10 -15z m7830 -35 c0 -5 -4 -10 -10 -10 -5 0 -10 5 -10 10 0
6 5 10 10 10 6 0 10 -4 10 -10z m-6996 -85 c-4 -8 -10 -15 -15 -15 -5 0 -9 7
-9 15 0 8 7 15 15 15 9 0 12 -6 9 -15z m1781 -97 c37 -104 37 -104 121 -70 52
21 82 17 71 -11 -6 -15 -174 -73 -184 -63 -8 8 -83 209 -83 222 0 12 30 24 39
17 2 -1 19 -44 36 -95z m1062 76 c3 -8 1 -20 -4 -25 -14 -14 -43 0 -43 22 0
24 38 26 47 3z m4873 -24 c0 -5 -5 -10 -11 -10 -5 0 -7 5 -4 10 3 6 8 10 11
10 2 0 4 -4 4 -10z m-7820 -62 c-33 -35 -60 -71 -60 -80 0 -10 -7 -18 -15 -18
-23 0 -18 13 20 56 20 21 48 53 63 71 15 18 33 32 40 33 7 0 -14 -28 -48 -62z
m-6883 30 c-3 -8 -6 -5 -6 6 -1 11 2 17 5 13 3 -3 4 -12 1 -19z m12293 -68 c5
0 21 -20 36 -45 14 -25 32 -45 39 -45 8 0 18 -6 22 -14 10 -16 58 -78 97 -123
15 -18 24 -33 19 -33 -5 0 -20 14 -33 32 -20 27 -94 109 -175 192 -11 12 -19
24 -18 27 1 4 -11 12 -27 19 -17 7 -30 19 -30 27 0 11 9 7 31 -11 17 -14 34
-26 39 -26z m-3682 -34 c68 -47 107 -80 107 -92 0 -27 -20 -27 -54 1 l-31 26
-72 -38 c-40 -21 -75 -39 -77 -41 -3 -1 -4 -23 -2 -47 2 -39 -1 -45 -17 -45
-11 0 -22 6 -25 13 -2 6 -2 68 1 136 4 103 8 127 23 142 11 11 24 19 29 19 6
0 59 -33 118 -74z m-310 -88 c3 -15 -4 -18 -45 -18 -100 0 -145 -94 -83 -173
51 -65 143 -30 174 66 6 20 46 23 46 3 0 -67 -74 -136 -147 -136 -61 0 -89 14
-118 59 -46 74 -23 151 59 202 40 25 109 23 114 -3z m4455 -17 c3 -14 1 -18
-9 -14 -8 3 -14 14 -14 25 0 23 16 16 23 -11z m-6033 -8 c0 -15 -40 -73 -50
-73 -17 0 -11 24 12 53 21 26 38 35 38 20z m5810 -133 c0 -5 -2 -10 -4 -10 -3
0 -8 5 -11 10 -3 6 -1 10 4 10 6 0 11 -4 11 -10z m-4512 -63 c16 -23 46 -60
66 -82 39 -44 53 -72 39 -86 -12 -12 -22 -3 -94 86 -78 96 -82 102 -74 115 13
20 35 9 63 -33z m4540 23 c7 -11 11 -20 9 -20 -2 0 -12 9 -22 20 -10 11 -14
20 -9 20 5 0 15 -9 22 -20z m-11782 -27 c-8 -9 -37 18 -30 28 3 5 12 2 21 -6
8 -9 13 -19 9 -22z m10887 6 c84 -56 135 -127 123 -174 -10 -41 -39 -29 -47
20 -5 30 -17 49 -50 79 -61 54 -86 69 -104 62 -22 -8 -11 -26 69 -115 70 -78
80 -107 50 -149 -24 -34 -62 -28 -129 21 -92 67 -127 111 -123 155 2 30 8 38
26 40 19 3 22 -1 22 -34 0 -31 7 -44 45 -80 24 -24 59 -51 76 -59 31 -17 59
-14 59 4 0 6 -34 49 -75 96 -76 87 -89 120 -62 150 20 24 70 17 120 -16z
m-3763 -51 c0 -7 -19 -30 -42 -50 l-43 -37 73 -73 c46 -47 72 -82 72 -96 0
-43 -15 -33 -123 86 -26 28 -49 52 -51 52 -2 0 -19 -16 -39 -35 -20 -19 -41
-35 -47 -35 -25 0 -4 31 77 112 81 81 123 107 123 76z m-7330 -8 c0 -5 -5 -10
-11 -10 -5 0 -7 5 -4 10 3 6 8 10 11 10 2 0 4 -4 4 -10z m-230 -15 c0 -8 -7
-15 -15 -15 -9 0 -12 6 -9 15 4 8 10 15 15 15 5 0 9 -7 9 -15z m12400 -143 c0
-15 -2 -15 -10 -2 -13 20 -13 33 0 25 6 -3 10 -14 10 -23z m-823 -33 c23 -22
45 -48 48 -58 3 -10 24 -33 46 -51 51 -41 74 -89 58 -122 -7 -13 -45 -51 -86
-86 -60 -52 -77 -61 -89 -52 -26 22 -15 39 61 96 41 31 75 64 75 73 -1 26 -36
61 -63 61 -16 0 -47 -21 -90 -61 -37 -33 -71 -58 -77 -54 -21 13 -9 45 26 72
76 58 104 86 104 101 0 22 -40 62 -63 62 -10 0 -50 -28 -88 -62 -64 -57 -71
-60 -86 -45 -15 15 -13 19 23 51 64 57 138 115 149 115 6 1 29 -17 52 -40z
m-11940 -1 c-3 -8 -6 -5 -6 6 -1 11 2 17 5 13 3 -3 4 -12 1 -19z m493 -20 c0
-13 -23 -5 -28 10 -2 7 2 10 12 6 9 -3 16 -11 16 -16z m7253 -40 c27 -36 17
-68 -40 -129 -25 -27 -44 -51 -42 -52 53 -36 79 -62 79 -77 0 -39 -23 -29
-102 44 -45 42 -85 76 -90 76 -4 0 -8 10 -8 23 0 13 23 47 60 85 52 55 64 63
91 60 21 -2 39 -13 52 -30z m6679 -63 c3 -14 1 -25 -3 -25 -5 0 -9 11 -9 25 0
14 2 25 4 25 2 0 6 -11 8 -25z m-13842 -15 c0 -5 -7 -10 -15 -10 -8 0 -15 5
-15 10 0 6 7 10 15 10 8 0 15 -4 15 -10z m13840 -40 c0 -5 -5 -10 -11 -10 -5
0 -7 5 -4 10 3 6 8 10 11 10 2 0 4 -4 4 -10z m-14434 -77 c-11 -11 -17 4 -9
23 7 18 8 18 11 1 2 -10 1 -21 -2 -24z m1890 10 c-10 -10 -19 5 -10 18 6 11 8
11 12 0 2 -7 1 -15 -2 -18z m-86 -22 c0 -6 -4 -13 -10 -16 -5 -3 -10 1 -10 9
0 9 5 16 10 16 6 0 10 -4 10 -9z m5777 -57 c70 -53 81 -123 32 -198 -38 -57
-54 -66 -114 -66 -49 0 -93 22 -127 64 -46 55 -3 176 75 216 50 25 86 21 134
-16z m-6397 6 c0 -5 -4 -10 -10 -10 -5 0 -10 5 -10 10 0 6 5 10 10 10 6 0 10
-4 10 -10z m11034 -23 c51 -56 106 -157 106 -198 0 -39 -21 -65 -45 -55 -17 6
-20 42 -5 51 6 4 8 16 4 28 -13 41 -94 157 -109 157 -23 0 -125 -68 -125 -83
0 -19 67 -129 92 -150 11 -9 29 -15 38 -12 21 7 44 -19 36 -40 -7 -18 -66 -20
-87 -2 -30 24 -80 96 -104 150 -22 47 -24 59 -13 82 15 34 120 97 172 104 5 0
23 -14 40 -32z m-11679 -77 c3 -5 1 -10 -4 -10 -6 0 -11 5 -11 10 0 6 2 10 4
10 3 0 8 -4 11 -10z m1100 -10 c-3 -5 -11 -10 -16 -10 -6 0 -7 5 -4 10 3 6 11
10 16 10 6 0 7 -4 4 -10z m-231 -26 c9 -3 16 -10 16 -14 0 -12 -35 -21 -53
-14 -13 5 -14 9 -4 20 14 15 19 16 41 8z m176 2 c0 -11 -19 -15 -25 -6 -3 5 1
10 9 10 9 0 16 -2 16 -4z m11480 -79 c0 -16 -18 3 -23 25 -6 22 -5 22 8 4 8
-11 15 -24 15 -29z m-11154 -4 c-10 -10 -19 5 -10 18 6 11 8 11 12 0 2 -7 1
-15 -2 -18z m-69 0 c-9 -9 -20 -13 -24 -9 -4 4 -1 11 7 16 25 16 35 11 17 -7z
m-187 -29 c0 -13 -34 -32 -48 -27 -9 4 -6 9 10 18 27 15 38 18 38 9z m-300
-20 c0 -8 -4 -12 -10 -9 -5 3 -10 10 -10 16 0 5 5 9 10 9 6 0 10 -7 10 -16z
m-90 -94 c0 -5 -9 -10 -20 -10 -11 0 -20 5 -20 10 0 6 9 10 20 10 11 0 20 -4
20 -10z m-70 -15 c0 -11 -10 -14 -40 -12 -44 2 -53 13 -17 20 44 9 57 7 57 -8z
m-306 -10 c-5 -11 -11 -12 -25 -4 -26 13 -24 19 6 19 17 0 23 -4 19 -15z
m-194 -5 c0 -5 -2 -10 -4 -10 -3 0 -8 5 -11 10 -3 6 -1 10 4 10 6 0 11 -4 11
-10z m710 1 c0 -6 -4 -13 -10 -16 -5 -3 -10 1 -10 9 0 9 5 16 10 16 6 0 10 -4
10 -9z m-435 -11 c-3 -5 -10 -10 -16 -10 -5 0 -9 5 -9 10 0 6 7 10 16 10 8 0
12 -4 9 -10z m915 0 c0 -5 -5 -10 -11 -10 -5 0 -7 5 -4 10 3 6 8 10 11 10 2 0
4 -4 4 -10z m-410 -10 c-20 -13 -40 -13 -40 0 0 6 12 10 28 10 21 0 24 -2 12
-10z m5840 -84 c91 -41 116 -64 93 -86 -4 -5 -48 11 -98 36 -49 24 -95 44
-102 44 -11 0 -33 30 -33 44 0 16 54 1 140 -38z m-6010 24 c0 -5 -7 -10 -15
-10 -8 0 -15 5 -15 10 0 6 7 10 15 10 8 0 15 -4 15 -10z m12130 -71 c0 -6 -4
-7 -10 -4 -5 3 -10 11 -10 16 0 6 5 7 10 4 6 -3 10 -11 10 -16z m-12620 -15
c0 -2 -7 -4 -15 -4 -8 0 -15 4 -15 10 0 5 7 7 15 4 8 -4 15 -8 15 -10z m11737
-129 c58 -167 56 -200 -15 -223 -52 -18 -101 11 -117 68 -12 45 -57 185 -60
188 -1 1 -16 -5 -32 -14 -36 -21 -63 -13 -63 19 0 21 11 26 103 54 56 17 111
31 122 30 16 -2 28 -25 62 -122z m-5302 62 c100 -34 130 -56 108 -78 -9 -9
-24 -7 -64 10 -29 11 -53 20 -54 19 -1 -2 -12 -34 -25 -73 -13 -38 -28 -75
-32 -81 -6 -8 7 -16 41 -24 55 -13 77 -31 67 -56 -7 -18 -13 -17 -96 16 -30
12 -70 25 -88 30 -39 10 -62 27 -62 47 0 12 7 14 33 9 71 -14 68 -16 93 58 13
39 24 75 24 81 0 7 -18 18 -40 25 -27 9 -40 19 -40 32 0 25 21 23 135 -15z
m-6025 -97 c0 -5 -2 -10 -4 -10 -3 0 -8 5 -11 10 -3 6 -1 10 4 10 6 0 11 -4
11 -10z m460 -56 c0 -8 -5 -14 -11 -14 -5 0 -7 5 -4 10 3 6 1 10 -5 10 -6 0
-8 5 -5 10 8 13 25 3 25 -16z m117 -20 c-3 -3 -12 -4 -19 -1 -8 3 -5 6 6 6 11
1 17 -2 13 -5z m-812 -84 c3 -5 -3 -10 -14 -10 -12 0 -21 5 -21 10 0 6 6 10
14 10 8 0 18 -4 21 -10z m435 -25 c0 -8 -7 -15 -15 -15 -16 0 -20 12 -8 23 11
12 23 8 23 -8z m260 -50 c0 -8 -7 -15 -15 -15 -26 0 -18 20 13 29 1 1 2 -6 2
-14z m90 5 c0 -5 -4 -10 -10 -10 -5 0 -10 5 -10 10 0 6 5 10 10 10 6 0 10 -4
10 -10z m5490 -26 c0 -23 -8 -28 -65 -36 -13 -2 -21 -12 -23 -28 -1 -14 -7
-51 -14 -83 l-11 -58 32 -27 c23 -19 30 -32 26 -44 -12 -30 -35 -21 -94 35
-31 28 -73 66 -93 84 -45 39 -56 69 -34 91 19 19 246 100 264 94 6 -2 12 -15
12 -28z m5368 9 c17 -44 55 -271 48 -289 -4 -11 -10 -13 -23 -6 -12 7 -22 39
-34 110 -25 151 -26 153 -54 149 -13 -1 -27 -5 -30 -8 -3 -4 4 -55 15 -114 17
-86 19 -110 8 -116 -24 -15 -35 11 -53 121 -19 109 -19 109 -44 103 -14 -3
-29 -10 -32 -16 -4 -5 4 -59 17 -121 22 -102 25 -156 6 -156 -20 1 -29 23 -45
110 -9 52 -22 121 -29 152 -6 32 -8 61 -4 65 3 4 32 10 64 15 93 12 137 20
141 24 14 13 40 0 49 -23z m-11076 -175 c-12 -12 -35 -1 -27 12 3 5 13 6 21 3
10 -4 12 -9 6 -15z m-312 2 c0 -5 -7 -10 -15 -10 -8 0 -15 5 -15 10 0 6 7 10
15 10 8 0 15 -4 15 -10z m560 6 c0 -3 -4 -8 -10 -11 -5 -3 -10 -1 -10 4 0 6 5
11 10 11 6 0 10 -2 10 -4z m7720 -113 c14 -9 51 -42 83 -72 66 -63 67 -69 33
-186 l-23 -80 -94 -32 c-52 -18 -103 -33 -114 -33 -27 0 -148 118 -141 137 3
8 1 11 -4 8 -22 -13 -10 54 13 71 12 9 15 14 7 11 -13 -4 -15 2 -12 29 3 25 9
34 23 34 10 0 21 5 24 10 3 6 -1 10 -9 10 -21 0 -20 34 1 51 15 13 15 12 4 -9
-17 -32 -5 -40 19 -14 13 13 16 22 8 22 -28 0 15 26 70 42 74 21 83 21 112 1z
m-2530 -46 c0 -12 -9 -28 -19 -34 -39 -24 -39 -133 -1 -133 24 0 34 18 54 95
26 100 87 125 134 55 46 -67 15 -209 -47 -218 -28 -4 -29 30 -1 65 22 29 27
101 9 134 -10 19 -12 20 -29 4 -10 -9 -21 -29 -25 -43 -25 -108 -35 -130 -66
-142 -27 -11 -33 -11 -57 7 -48 36 -53 132 -12 201 24 38 60 44 60 9z m-7004
-53 c-3 -9 -6 -23 -7 -32 -1 -10 -4 -7 -8 8 -9 28 -5 40 11 40 5 0 7 -7 4 -16z
m12712 -19 c2 -25 -12 -46 -93 -138 -52 -59 -95 -110 -95 -113 0 -3 41 -4 91
-3 93 2 114 -5 107 -37 -3 -17 -15 -19 -133 -19 l-130 0 -3 35 c-3 32 6 44 93
139 52 57 95 107 95 110 0 3 -42 5 -94 3 -88 -3 -95 -2 -101 17 -12 38 1 42
133 39 l127 -3 3 -30z m-12673 -25 c-5 -8 -11 -8 -17 -2 -6 6 -7 16 -3 22 5 8
11 8 17 2 6 -6 7 -16 3 -22z m935 10 c0 -5 -2 -10 -4 -10 -3 0 -8 5 -11 10 -3
6 -1 10 4 10 6 0 11 -4 11 -10z m6205 -177 c4 -13 -4 -26 -29 -48 -36 -30 -36
-31 -36 -108 l0 -77 35 -17 c25 -12 35 -23 35 -40 0 -13 -6 -23 -13 -23 -7 0
-65 27 -128 59 -111 57 -114 60 -117 95 -2 20 1 36 5 36 5 0 20 9 33 20 36 28
183 118 196 119 7 1 15 -7 19 -16z m-6175 -37 c0 -11 -19 -15 -25 -6 -3 5 1
10 9 10 9 0 16 -2 16 -4z m4306 -25 c18 15 31 -18 39 -103 12 -126 26 -191 43
-205 9 -8 11 -12 5 -8 -8 4 -13 0 -13 -9 0 -18 41 -62 53 -58 4 1 7 -5 7 -13
0 -8 4 -15 8 -15 5 0 16 -37 26 -82 10 -46 27 -115 37 -154 10 -38 19 -84 19
-100 0 -17 6 -39 14 -49 8 -11 12 -25 9 -32 -7 -18 27 -116 43 -126 8 -4 14
-13 14 -20 0 -7 15 -19 33 -27 34 -16 43 -36 33 -76 -7 -27 -26 -33 -26 -7 0
9 -2 14 -4 12 -16 -15 45 -233 78 -285 9 -12 31 -28 50 -35 38 -14 62 -48 52
-74 -3 -9 -9 -14 -14 -11 -4 2 -5 -21 -1 -52 4 -37 20 -86 47 -139 38 -76 45
-84 96 -109 54 -26 76 -51 57 -63 -6 -4 -6 -12 -1 -21 5 -8 6 -26 3 -41 -4
-20 6 -46 33 -95 48 -87 91 -134 120 -134 13 0 35 -10 49 -23 21 -18 28 -35
34 -83 8 -70 23 -97 86 -155 25 -23 45 -47 45 -54 0 -16 22 -25 59 -25 47 0
81 -35 81 -81 0 -54 11 -72 88 -151 60 -62 70 -68 107 -68 47 0 100 -29 110
-60 4 -12 5 -24 2 -27 -14 -13 21 -67 71 -110 31 -26 60 -52 64 -57 4 -6 39
-13 78 -17 78 -7 121 -34 118 -73 -3 -37 57 -104 144 -159 21 -13 40 -15 87
-11 51 6 65 3 95 -15 21 -13 36 -31 36 -41 0 -11 5 -31 12 -45 6 -14 9 -28 5
-31 -3 -3 -56 20 -119 52 -195 99 -239 126 -534 325 -13 8 -38 29 -56 45 -18
16 -49 40 -68 54 -19 13 -87 70 -150 126 -219 195 -436 432 -568 619 -141 201
-202 290 -202 296 0 4 -25 49 -56 100 -45 75 -194 370 -194 384 0 2 -13 32
-29 67 -54 117 -155 421 -196 588 -44 180 -94 504 -97 625 -1 78 11 163 20
137 3 -10 7 -10 18 -1z m7410 -155 c-3 -17 -10 -89 -16 -161 -15 -169 -16
-175 -41 -175 -20 0 -21 3 -14 85 6 69 5 85 -6 85 -8 0 -54 5 -103 10 -88 9
-109 19 -99 47 5 12 23 13 97 8 50 -4 98 -9 108 -11 14 -4 17 7 23 73 4 43 13
81 18 85 20 12 38 -13 33 -46z m-12719 -68 c-3 -8 -6 -5 -6 6 -1 11 2 17 5 13
3 -3 4 -12 1 -19z m1343 -148 c0 -5 -4 -10 -10 -10 -5 0 -10 5 -10 10 0 6 5
10 10 10 6 0 10 -4 10 -10z m11214 -117 c84 -92 97 -110 94 -137 -3 -34 -1
-33 -151 -101 -113 -51 -150 -57 -145 -23 2 13 15 29 30 36 16 7 30 23 33 35
3 12 14 64 25 116 l21 95 -21 29 c-22 29 -21 57 3 57 8 0 58 -48 111 -107z
m-7002 -100 c20 -18 23 -49 7 -90 -13 -36 -24 -18 -32 55 -7 56 -3 61 25 35z
m1636 -19 c31 -9 71 -81 78 -140 5 -43 3 -52 -19 -76 -19 -20 -36 -28 -60 -28
-19 0 -48 -7 -63 -15 -16 -8 -37 -15 -47 -15 -51 0 -99 117 -76 187 12 37 34
53 74 53 15 0 38 9 52 20 28 22 29 22 61 14z m4970 -117 c2 -10 -3 -17 -12
-17 -10 0 -16 9 -16 21 0 24 23 21 28 -4z m-10753 -77 c3 -5 1 -10 -4 -10 -6
0 -11 5 -11 10 0 6 2 10 4 10 3 0 8 -4 11 -10z m10986 -72 c13 -40 26 -76 29
-81 4 -4 32 11 64 33 61 43 96 46 96 10 0 -13 -21 -31 -62 -56 -35 -20 -66
-41 -69 -46 -4 -5 4 -41 17 -79 23 -69 23 -99 -1 -99 -20 0 -32 20 -52 87
l-18 62 -53 -32 c-107 -64 -112 -65 -112 -23 0 16 13 32 43 52 23 16 44 29 47
30 3 0 17 6 32 12 l27 11 -20 58 c-27 75 -38 121 -31 127 3 4 13 6 23 6 13 0
24 -18 40 -72z m706 0 c-3 -7 -5 -2 -5 12 0 14 2 19 5 13 2 -7 2 -19 0 -25z
m-5808 -34 c30 -15 32 -19 26 -54 -4 -25 -1 -51 10 -76 18 -45 13 -84 -13 -84
-42 0 -215 57 -224 74 -19 34 5 37 90 15 45 -12 85 -20 88 -17 3 3 2 17 -1 31
-5 20 -14 27 -38 29 -40 4 -43 18 -12 52 14 15 25 31 25 37 0 13 12 11 49 -7z
m-6758 -47 c-1 -12 -15 -9 -19 4 -3 6 1 10 8 8 6 -3 11 -8 11 -12z m12524 -67
c-4 -12 -2 -27 5 -35 7 -9 8 -15 0 -20 -5 -3 -13 1 -16 9 -6 17 3 66 12 66 3
0 2 -9 -1 -20z m-5663 -151 c38 -17 80 -92 76 -135 -3 -43 -32 -69 -48 -44 -5
8 -7 25 -4 36 7 27 -19 80 -45 94 -15 7 -23 6 -35 -6 -25 -24 -19 -56 19 -99
19 -22 35 -43 35 -47 0 -23 -99 -84 -122 -75 -16 6 -72 113 -83 158 -7 28 3
43 21 31 6 -4 25 -35 43 -69 22 -41 38 -60 47 -56 18 7 18 13 -1 39 -8 12 -18
40 -23 62 -8 33 -6 46 9 70 29 49 65 62 111 41z m4935 -55 c9 -24 -57 -154
-78 -154 -39 0 -30 37 38 148 16 26 31 28 40 6z m-11987 -129 c10 -12 10 -15
-4 -15 -9 0 -16 7 -16 15 0 8 2 15 4 15 2 0 9 -7 16 -15z m11854 -110 c103
-71 116 -94 77 -129 -17 -16 -27 -17 -90 -7 -68 11 -141 15 -141 8 0 -2 22
-45 50 -96 49 -89 50 -93 35 -122 -9 -16 -23 -29 -33 -29 -9 0 -46 21 -82 46
-36 25 -82 56 -103 70 -40 26 -45 49 -16 67 13 8 33 -2 98 -51 44 -34 81 -58
81 -55 0 3 -15 31 -34 62 -65 108 -78 139 -66 162 11 19 17 20 88 13 42 -4 90
-11 107 -15 61 -18 56 -8 -20 44 -88 59 -108 82 -85 97 20 13 24 11 134 -65z
m-11784 15 c0 -5 -4 -10 -10 -10 -5 0 -10 5 -10 10 0 6 5 10 10 10 6 0 10 -4
10 -10z m7198 -72 c-3 -22 -8 -23 -110 -26 -119 -3 -122 -5 -90 -62 10 -19 28
-33 45 -37 16 -3 31 -12 34 -20 7 -18 -25 -53 -48 -53 -18 0 -66 66 -109 150
-33 65 -23 70 142 70 139 0 139 0 136 -22z m130 -173 c43 -43 44 -47 39 -92
-4 -40 -12 -54 -50 -90 -64 -60 -121 -62 -176 -8 -28 28 -34 41 -35 78 -1 25
3 49 7 53 13 13 42 -11 45 -37 5 -44 24 -69 51 -69 l25 0 -35 36 c-29 29 -34
42 -34 80 0 38 5 50 28 70 44 38 82 32 135 -21z m2907 15 c-3 -5 -11 -10 -16
-10 -6 0 -7 5 -4 10 3 6 11 10 16 10 6 0 7 -4 4 -10z m-115 -60 c-8 -5 -19
-10 -25 -10 -5 0 -3 5 5 10 8 5 20 10 25 10 6 0 3 -5 -5 -10z m-70 -30 c-8 -5
-19 -10 -25 -10 -5 0 -3 5 5 10 8 5 20 10 25 10 6 0 3 -5 -5 -10z m-2553 -119
c54 -39 87 -93 78 -129 -8 -31 -42 -72 -62 -72 -7 0 -13 -5 -13 -12 0 -26 -43
-58 -80 -58 -29 0 -44 8 -78 43 -29 29 -45 55 -49 80 -5 33 -2 41 31 71 20 19
36 39 36 44 0 5 9 21 21 36 27 35 65 34 116 -3z m3108 -61 c3 -5 -1 -10 -10
-10 -9 0 -13 5 -10 10 3 6 8 10 10 10 2 0 7 -4 10 -10z m245 -41 c-58 -51
-118 -90 -124 -80 -3 4 10 17 29 27 19 10 35 21 35 25 0 3 16 14 35 25 19 10
35 22 35 26 0 5 6 8 13 8 6 -1 -4 -14 -23 -31z m427 -44 c37 -41 71 -75 75
-75 4 0 8 12 10 28 2 19 9 27 23 27 18 0 20 -6 18 -49 -1 -35 -8 -55 -22 -70
l-21 -21 -86 85 c-94 94 -107 111 -98 134 11 29 31 17 101 -59z m-3560 -59
c35 -22 63 -70 63 -106 0 -35 -48 -107 -87 -130 -47 -27 -90 -20 -138 22 -30
26 -35 36 -35 75 0 40 2 45 20 40 17 -4 20 0 20 32 0 28 7 44 28 63 46 43 70
44 129 4z m2958 -22 c-11 -8 -25 -12 -31 -10 -7 3 -14 -3 -17 -13 -5 -21 -316
-178 -429 -216 -141 -47 -334 -92 -323 -75 3 6 15 10 25 10 11 0 29 4 42 9 13
5 64 22 113 37 106 32 201 68 309 118 43 20 84 36 91 36 7 0 15 3 17 8 2 4 28
20 58 36 30 16 66 38 79 48 13 10 27 15 32 12 5 -3 16 2 25 11 9 9 19 13 23
10 3 -4 -3 -13 -14 -21z m408 6 c3 -10 -1 -27 -8 -36 -22 -31 -66 4 -51 41 8
22 53 19 59 -5z m-266 -35 c-40 -35 -176 -119 -269 -167 -44 -23 -109 -52
-263 -118 -56 -24 -141 -50 -243 -74 -123 -29 -163 -30 -60 -1 110 30 283 92
395 140 111 48 266 128 293 150 8 7 25 16 38 19 12 4 22 12 22 17 0 5 6 9 13
9 6 0 32 14 57 30 59 39 64 37 17 -5z m343 -60 c15 -18 7 -43 -16 -52 -24 -9
-46 24 -33 48 12 23 32 24 49 4z m-234 -16 c18 -20 18 -21 -10 -72 -16 -29
-40 -74 -53 -102 l-25 -49 22 -18 c28 -23 30 -23 71 5 30 20 34 28 34 67 0 35
4 45 18 48 38 7 61 -63 36 -109 -5 -11 -28 -33 -51 -49 -56 -41 -108 -41 -149
-1 -36 36 -37 66 -4 131 14 28 23 50 20 50 -3 0 -24 -11 -46 -25 -41 -26 -79
-26 -79 -1 0 16 48 66 64 66 6 1 36 19 66 40 30 21 58 39 61 40 3 0 14 -9 25
-21z m-11326 -134 c0 -14 -4 -25 -10 -25 -11 0 -14 33 -3 43 11 11 13 8 13
-18z m10217 -91 c-3 -3 -12 -4 -19 -1 -8 3 -5 6 6 6 11 1 17 -2 13 -5z m628
-54 c20 -7 26 -16 23 -33 -3 -19 -8 -22 -44 -19 -72 5 -135 -45 -104 -83 21
-25 66 -18 104 16 20 17 43 29 52 27 10 -2 28 -29 42 -62 l26 -59 -27 -23
c-25 -22 -162 -73 -171 -63 -2 2 -6 13 -8 23 -2 16 10 25 62 47 36 15 66 35
68 43 4 20 -2 20 -31 2 -20 -13 -57 -20 -100 -17 -10 1 -32 14 -48 30 -85 86
35 217 156 171z m-10855 -91 c0 -31 -14 -39 -24 -13 -8 21 3 56 15 49 5 -4 9
-19 9 -36z m10582 -30 c37 -36 61 -105 53 -156 -17 -117 -162 -124 -221 -11
-8 15 -14 52 -14 83 0 50 4 60 30 87 28 27 36 30 79 26 33 -3 56 -12 73 -29z
m-255 -21 c13 -17 36 -175 28 -189 -4 -5 -12 -8 -18 -6 -7 2 -27 -3 -46 -10
-22 -10 -50 -12 -81 -8 -36 5 -49 3 -59 -9 -9 -10 -30 -16 -60 -16 -37 0 -52
5 -71 24 -23 25 -39 83 -40 144 0 27 3 32 25 32 20 0 25 -6 30 -37 14 -91 18
-98 55 -98 45 0 62 30 48 85 -12 48 -5 70 21 70 22 0 25 -9 36 -92 6 -47 7
-48 40 -48 49 0 69 32 56 91 -13 59 10 101 36 67z m-697 -57 c5 -11 10 -45 10
-75 0 -50 2 -56 24 -62 13 -3 34 -1 45 6 22 11 24 21 21 77 -2 47 9 73 30 73
22 0 29 -20 32 -100 3 -53 4 -55 34 -58 44 -4 62 21 66 93 3 52 6 60 23 60 18
0 20 -8 25 -93 4 -66 1 -97 -7 -104 -7 -5 -45 -7 -90 -5 -99 7 -89 7 -155 1
-53 -5 -59 -4 -83 22 -22 24 -25 36 -25 99 0 39 3 75 7 78 12 13 32 7 43 -12z
m2017 -57 c-3 -3 -12 -4 -19 -1 -8 3 -5 6 6 6 11 1 17 -2 13 -5z m-52 -40
l-30 -26 38 22 c21 12 40 20 43 17 13 -13 -226 -168 -368 -239 -32 -16 -51
-38 -33 -38 13 0 237 117 307 161 44 27 83 49 87 49 5 0 26 13 49 30 22 16 54
32 69 36 l28 7 -30 -32 c-27 -30 -153 -125 -165 -126 -3 0 -48 -26 -101 -57
-132 -78 -235 -131 -294 -152 -27 -10 -61 -23 -75 -28 -53 -22 -66 -27 -90
-34 -14 -4 -35 -7 -47 -5 -16 2 -21 -2 -18 -12 6 -14 -3 -17 -52 -18 -50 -2
-168 -21 -179 -30 -6 -5 -19 -10 -30 -12 -10 -2 -27 -8 -37 -12 -10 -4 -23 -3
-28 2 -7 7 2 13 28 18 21 4 57 16 81 26 23 11 48 17 55 13 9 -5 9 -4 1 5 -8 8
-21 8 -55 -3 -78 -23 -182 -46 -247 -52 -55 -6 -62 -5 -56 10 4 11 1 16 -10
16 -29 0 -16 17 22 28 384 110 714 240 934 369 31 18 64 33 73 33 10 0 33 14
52 30 24 22 44 30 71 30 l37 0 -30 -26z m-11595 -256 c0 -16 -3 -19 -11 -11
-6 6 -8 16 -5 22 11 17 16 13 16 -11z m10839 -221 c-17 -11 -99 -34 -99 -28 0
8 92 40 99 34 2 -1 2 -4 0 -6z m-274 -36 c-16 -14 -55 -23 -55 -12 0 5 12 12
28 14 15 2 29 5 32 6 2 0 0 -3 -5 -8z m145 5 c0 -3 -4 -8 -10 -11 -5 -3 -10
-1 -10 4 0 6 5 11 10 11 6 0 10 -2 10 -4z m-70 -31 c-14 -8 -33 -14 -44 -15
-15 0 -16 3 -6 15 7 8 27 15 44 15 l31 -1 -25 -14z m-2785 -157 c28 -13 35
-42 8 -34 -10 3 -33 8 -52 11 -40 7 -51 12 -51 26 0 13 64 11 95 -3z m6055
-1088 c0 -5 -6 -10 -14 -10 -8 0 -18 5 -21 10 -3 6 3 10 14 10 12 0 21 -4 21
-10z m-74 -347 c-10 -10 -19 5 -10 18 6 11 8 11 12 0 2 -7 1 -15 -2 -18z"/>
<path d="M11637 14608 c6 -7 13 -20 16 -28 4 -10 6 -8 6 6 1 12 -6 25 -15 28
-13 5 -14 3 -7 -6z"/>
<path d="M10980 14396 c0 -2 7 -6 15 -10 8 -3 15 -1 15 4 0 6 -7 10 -15 10 -8
0 -15 -2 -15 -4z"/>
<path d="M12013 14077 c-34 -17 -48 -50 -33 -78 17 -33 29 -39 72 -39 29 0 41
6 58 30 46 65 -21 124 -97 87z"/>
<path d="M13211 14256 c-14 -16 -8 -66 14 -131 8 -22 23 -73 35 -112 21 -75
50 -107 73 -84 12 12 6 44 -32 186 -36 131 -63 173 -90 141z"/>
<path d="M5920 12289 c0 -11 5 -17 10 -14 6 3 10 13 10 21 0 8 -4 14 -10 14
-5 0 -10 -9 -10 -21z"/>
<path d="M5279 12161 c12 -8 51 -4 51 5 0 2 -15 4 -32 4 -23 0 -29 -3 -19 -9z"/>
<path d="M5420 12150 c0 -5 7 -10 15 -10 8 0 15 5 15 10 0 6 -7 10 -15 10 -8
0 -15 -4 -15 -10z"/>
<path d="M5635 12100 c-3 -5 3 -10 15 -10 12 0 18 5 15 10 -3 6 -10 10 -15 10
-5 0 -12 -4 -15 -10z"/>
<path d="M5885 11990 c-3 -5 1 -10 10 -10 9 0 13 5 10 10 -3 6 -8 10 -10 10
-2 0 -7 -4 -10 -10z"/>
<path d="M7087 11773 c-8 -8 -9 -53 -1 -53 14 0 35 32 30 45 -6 16 -18 19 -29
8z"/>
<path d="M7160 11756 c0 -9 5 -16 10 -16 6 0 10 4 10 9 0 6 -4 13 -10 16 -5 3
-10 -1 -10 -9z"/>
<path d="M9835 10890 c-3 -5 -2 -10 4 -10 5 0 13 5 16 10 3 6 2 10 -4 10 -5 0
-13 -4 -16 -10z"/>
<path d="M11540 11165 c-10 -13 -9 -15 12 -15 15 0 25 6 25 15 0 8 -6 15 -12
15 -7 0 -18 -7 -25 -15z"/>
<path d="M11400 11125 c-10 -13 -9 -15 9 -15 11 0 21 4 21 9 0 18 -18 21 -30
6z"/>
<path d="M11705 11080 c3 -5 11 -10 16 -10 6 0 7 5 4 10 -3 6 -11 10 -16 10
-6 0 -7 -4 -4 -10z"/>
<path d="M11106 11015 c-25 -19 -5 -19 44 0 l35 13 -30 1 c-16 0 -39 -6 -49
-14z"/>
<path d="M10690 10648 c0 -4 4 -8 9 -8 6 0 12 4 15 8 3 5 -1 9 -9 9 -8 0 -15
-4 -15 -9z"/>
<path d="M10895 10290 c-3 -5 -1 -10 4 -10 6 0 11 5 11 10 0 6 -2 10 -4 10 -3
0 -8 -4 -11 -10z"/>
<path d="M12460 10313 c-29 -6 -68 -45 -76 -77 -3 -13 -1 -41 5 -63 29 -109
201 -75 201 40 0 21 -5 47 -11 59 -10 18 -68 50 -86 47 -4 -1 -19 -4 -33 -6z"/>
<path d="M11387 9963 c-7 -15 -7 -113 0 -113 17 0 93 46 93 55 0 9 -72 65 -84
65 -2 0 -7 -3 -9 -7z"/>
<path d="M10501 9273 c-23 -27 -41 -51 -41 -55 0 -4 12 -15 26 -25 26 -17 27
-17 65 28 41 46 50 83 23 93 -26 10 -31 8 -73 -41z"/>
<path d="M10296 9025 c-46 -46 -56 -93 -27 -134 28 -38 90 -59 126 -43 52 24
84 122 52 162 -46 59 -102 64 -151 15z"/>
<path d="M15330 8450 c-8 -5 -27 -10 -41 -10 l-26 0 36 -104 c41 -116 53 -136
82 -129 37 10 37 34 0 145 -30 89 -39 106 -51 98z"/>
<path d="M9965 8029 c-16 -11 -40 -19 -52 -19 -33 0 -29 -11 21 -52 l43 -37
13 60 c7 33 11 61 9 63 -2 2 -17 -5 -34 -15z"/>
<path d="M9906 7417 c-6 -25 -50 -52 -78 -48 -35 5 -17 -15 35 -39 28 -13 55
-25 59 -28 9 -4 5 124 -3 133 -4 3 -9 -5 -13 -18z"/>
<path d="M8210 6981 c0 -5 5 -13 10 -16 6 -3 10 -2 10 4 0 5 -4 13 -10 16 -5
3 -10 2 -10 -4z"/>
<path d="M15355 6918 c-4 -14 -25 -127 -25 -138 0 -6 118 45 129 56 6 6 -81
94 -91 94 -5 0 -11 -6 -13 -12z"/>
<path d="M10017 6783 c-15 -14 -7 -90 11 -106 41 -37 57 -7 35 66 -12 43 -29
58 -46 40z"/>
<path d="M9908 6728 c-3 -46 3 -73 20 -86 14 -10 19 -10 28 3 11 15 5 68 -10
94 -12 19 -36 12 -38 -11z"/>
<path d="M10497 5733 c-14 -13 -6 -54 13 -73 24 -24 65 -26 74 -4 16 41 -58
107 -87 77z"/>
<path d="M10690 5509 c0 -28 63 -91 84 -83 25 10 19 33 -18 70 -39 39 -66 44
-66 13z"/>
<path d="M10620 5421 c0 -25 39 -69 65 -73 30 -5 29 25 0 61 -30 35 -65 42
-65 12z"/>
<path d="M10894 5316 c-17 -44 21 -86 77 -86 25 0 26 40 2 68 -25 29 -71 39
-79 18z"/>
<path d="M10840 5226 c0 -18 43 -66 59 -66 23 0 15 17 -21 49 -29 25 -38 29
-38 17z"/>
<path d="M13335 4788 c-31 -24 -33 -70 -6 -115 25 -40 54 -50 88 -28 23 15 25
22 21 66 -8 79 -56 115 -103 77z"/>
<path d="M14008 4363 c-27 -14 -46 -28 -45 -30 5 -4 61 20 97 42 45 26 -3 16
-52 -12z"/>
<path d="M13725 4250 c-16 -7 -17 -9 -3 -9 9 -1 20 4 23 9 7 11 7 11 -20 0z"/>
<path d="M14740 14321 c0 -5 5 -13 10 -16 6 -3 10 -2 10 4 0 5 -4 13 -10 16
-5 3 -10 2 -10 -4z"/>
<path d="M15012 13650 c-6 -11 -8 -21 -3 -25 5 -3 13 4 16 16 9 28 2 33 -13 9z"/>
<path d="M8736 12921 c-3 -5 3 -11 14 -14 13 -3 20 0 20 9 0 15 -26 19 -34 5z"/>
<path d="M4190 12319 c-33 -10 -70 -41 -70 -60 0 -16 64 -9 96 10 36 22 52 62
26 60 -10 0 -33 -5 -52 -10z"/>
<path d="M3355 11270 c-3 -5 -1 -10 4 -10 6 0 11 5 11 10 0 6 -2 10 -4 10 -3
0 -8 -4 -11 -10z"/>
<path d="M16780 2674 c0 -8 5 -12 10 -9 6 3 10 10 10 16 0 5 -4 9 -10 9 -5 0
-10 -7 -10 -16z"/>
<path d="M16781 2594 c0 -11 3 -14 6 -6 3 7 2 16 -1 19 -3 4 -6 -2 -5 -13z"/>
</g>
</svg>
